<!-- Generator: Adobe Illustrator 25.2.3, SVG Export Plug-In  -->
<svg version="1.1" xmlns="http://www.w3.org/2000/svg" xmlns:xlink="http://www.w3.org/1999/xlink" x="0px" y="0px" width="175.5px"
	 height="175.5px" viewBox="0 0 175.5 175.5" style="overflow:visible;enable-background:new 0 0 175.5 175.5;"
	 xml:space="preserve">
<style type="text/css">
	.st0{fill:#8BA042;stroke:#E7C338;stroke-width:14.0006;stroke-miterlimit:10.0005;}
	.st1{fill:#FFFFFF;}
</style>
<defs>
</defs>
<circle class="st0" cx="87.8" cy="87.8" r="80.8"/>
<g>
	<path class="st1" d="M64,39.8l-1,1.1c-0.4-0.4-0.9-0.7-1.4-0.7c-1.1-0.1-1.9,0.7-2,2.7c-0.2,2,0.5,2.9,1.6,3
		c0.7,0.1,1.2-0.2,1.7-0.6l0.8,1.2c-0.6,0.5-1.5,0.9-2.7,0.9c-2.3-0.2-3.7-1.8-3.4-4.7c0.2-2.8,2-4.2,4.1-4
		C62.6,38.8,63.4,39.2,64,39.8z"/>
	<path class="st1" d="M66.6,46.4c0.1,0,0.2,0,0.3,0l0.3,1.4c-0.3,0.1-0.8,0.2-1.2,0.1c-1.1-0.1-1.6-0.8-1.5-1.9l0.6-7.3l1.9-0.1
		l-0.6,7.3C66.3,46.2,66.4,46.4,66.6,46.4z"/>
	<path class="st1" d="M67.9,47.8l0.5-6.3l1.9,0.2l-0.5,6.3L67.9,47.8z M70.6,39.3c0,0.6-0.6,1-1.2,1c-0.7-0.1-1.1-0.6-1-1.2
		c0-0.6,0.5-1,1.2-1C70.2,38.2,70.7,38.7,70.6,39.3z"/>
	<path class="st1" d="M76.6,42.7l-0.9,1.1c-0.4-0.4-0.7-0.5-1.2-0.6c-0.8-0.1-1.3,0.4-1.4,1.9c-0.1,1.4,0.4,1.9,1.1,1.9
		c0.5,0,0.8-0.1,1.2-0.4l0.8,1.3c-0.6,0.4-1.3,0.7-2.2,0.6c-1.9-0.2-3-1.6-2.9-3.6c0.2-2,1.5-3.3,3.4-3.2
		C75.4,41.8,76.1,42.1,76.6,42.7z"/>
	<path class="st1" d="M77,48.5l0.7-8.9l1.9-0.1l-0.7,9.1L77,48.5z M82.9,49l-2.1-0.2l-1.6-3.6l2.2-2.7l1.9,0.2l-2.1,2.6L82.9,49z"/>
	<path class="st1" d="M88.7,45.9l-0.3,3.6l-2-0.2l0.7-8.3l2,0.2l-0.3,3.2l2.5,0.2l0.3-3.2l2,0.2l-0.7,8.3l-2-0.2l0.3-3.6L88.7,45.9z
		"/>
	<path class="st1" d="M100.1,47.7l-3.9-0.3c0,1.1,0.6,1.5,1.3,1.6c0.5,0,1-0.1,1.6-0.4l0.7,1.1c-0.7,0.5-1.5,0.8-2.5,0.7
		c-2.1-0.2-3.1-1.6-2.9-3.6c0.2-1.9,1.3-3.3,3.2-3.2c1.8,0.1,2.8,1.4,2.7,3.5C100.2,47.3,100.1,47.6,100.1,47.7z M98.4,46.4
		c0.1-0.9-0.2-1.5-0.9-1.5c-0.6-0.1-1,0.3-1.2,1.5L98.4,46.4L98.4,46.4z"/>
	<path class="st1" d="M105.6,44.3l-0.4,1.8c-0.2-0.1-0.4-0.1-0.6-0.1c-0.8-0.1-1.2,0.5-1.4,1.4l-0.3,3.1l-1.9-0.2l0.5-6.3l1.7,0.1
		l0.1,1.2c0.4-0.9,1-1.3,1.8-1.3C105.2,44.2,105.4,44.3,105.6,44.3z"/>
	<path class="st1" d="M111.4,48.7l-3.9-0.3c0,1.1,0.6,1.5,1.3,1.6c0.5,0,1-0.1,1.6-0.4l0.7,1.1c-0.7,0.5-1.5,0.8-2.5,0.7
		c-2.1-0.2-3.1-1.6-2.9-3.6c0.2-1.9,1.3-3.3,3.2-3.2c1.8,0.1,2.8,1.4,2.7,3.5C111.5,48.2,111.4,48.5,111.4,48.7z M109.7,47.3
		c0.1-0.9-0.2-1.5-0.9-1.5c-0.6-0.1-1,0.3-1.2,1.5L109.7,47.3L109.7,47.3z"/>
	<path class="st1" d="M119.1,45.1l-0.5,6.8l-2-0.2l0.5-6.8l-2.1-0.2l0.1-1.5l6.3,0.5l-0.3,1.5L119.1,45.1z"/>
	<path class="st1" d="M126.7,49.3c-0.2,2-1.4,3.3-3.4,3.1c-1.9-0.2-3-1.5-2.8-3.6c0.2-2,1.4-3.3,3.4-3.1
		C125.9,45.9,126.9,47.2,126.7,49.3z M122.5,49c-0.1,1.4,0.2,2,1,2.1c0.8,0.1,1.2-0.5,1.3-1.9c0.1-1.4-0.2-2-1-2.1
		C123,47,122.6,47.6,122.5,49z"/>
	<path class="st1" d="M66.7,60.7l-2,2c-0.8-0.8-1.6-1.3-2.7-1.4c-2-0.2-3.6,1.3-3.9,5.2c-0.3,3.8,1,5.6,3.1,5.7
		c1.3,0.1,2.2-0.4,3.2-1.1l1.5,2.3c-1.1,1-2.9,1.8-5.1,1.6c-4.4-0.4-7-3.5-6.6-9c0.4-5.3,3.7-8,7.8-7.7
		C64.1,58.8,65.5,59.5,66.7,60.7z"/>
	<path class="st1" d="M71.7,68.9l-0.6,6.8l-3.8-0.3l1.3-15.9l3.8,0.3L72,66l4.8,0.4l0.5-6.1l3.8,0.3l-1.3,15.9l-3.8-0.3l0.6-6.8
		L71.7,68.9z"/>
	<path class="st1" d="M87.5,63.8l-0.3,3.8l4.9,0.4l-0.2,2.6L87,70.2l-0.3,4.1l6,0.5l-0.2,2.7l-9.7-0.8L84,60.8l9.7,0.8l-0.6,2.7
		L87.5,63.8z"/>
	<path class="st1" d="M107.2,64l-2,2c-0.8-0.8-1.6-1.3-2.7-1.4c-2-0.2-3.6,1.3-3.9,5.2c-0.3,3.8,1,5.6,3.1,5.7
		c1.3,0.1,2.2-0.4,3.2-1.1l1.5,2.3c-1.1,1-2.9,1.8-5.1,1.6c-4.4-0.4-7-3.5-6.6-9c0.4-5.3,3.7-8,7.8-7.7
		C104.6,62.1,106,62.8,107.2,64z"/>
	<path class="st1" d="M107.9,78.7l1.3-15.9l3.8,0.3L111.7,79L107.9,78.7z M121.2,79.8l-4.4-0.4l-4.4-8.9l5.6-7l4,0.3l-5.6,6.7
		L121.2,79.8z"/>
	<path class="st1" d="M24.3,96.2l-1.1,3.3l-3.9-0.3l6.1-15.5l4.6,0.4l3.5,16.3l-4-0.3l-0.6-3.5L24.3,96.2z M27.4,86.6l-2.2,6.9
		l3.3,0.3L27.4,86.6z"/>
	<path class="st1" d="M36.4,100.6l-3.3-16.3l4,0.3l2,13.2l3.9-12.7l3.9,0.3L41.1,101L36.4,100.6z"/>
	<path class="st1" d="M48.8,98.2l-1.1,3.3l-3.9-0.3l6.1-15.5l4.6,0.4l3.5,16.3l-4-0.3l-0.6-3.5L48.8,98.2z M51.9,88.6l-2.2,6.9
		l3.3,0.3L51.9,88.6z"/>
	<path class="st1" d="M59.1,102.4l1.3-15.9l3.8,0.3l-1.3,15.9L59.1,102.4z"/>
	<path class="st1" d="M76.1,100.8l-0.6,2.9l-9.6-0.8l1.3-15.9l3.8,0.3l-1,12.9L76.1,100.8z"/>
	<path class="st1" d="M80.8,100.8l-1.1,3.3l-3.9-0.3l6.1-15.5l4.6,0.4l3.5,16.3l-4-0.3l-0.5-3.5L80.8,100.8z M83.9,91.2l-2.2,6.9
		l3.3,0.3L83.9,91.2z"/>
	<path class="st1" d="M103.6,101.4c-0.3,3.6-3.3,4.4-7.3,4.1l-5.1-0.4l1.3-15.9l4.5,0.4c4.3,0.3,6.8,1.6,6.5,4.6
		c-0.2,2-1.7,3-3.2,3.2C102.1,97.8,103.8,98.8,103.6,101.4z M99.7,100.9c0.1-1.6-0.9-2.3-2.6-2.4l-1.7-0.1l-0.3,4.3l1.4,0.1
		C98.3,102.9,99.6,102.6,99.7,100.9z M95.7,95.8l1.4,0.1c1.6,0.1,2.4-0.4,2.5-1.7c0.1-1.3-0.7-1.8-2.5-2L96,92.1L95.7,95.8z"/>
	<path class="st1" d="M105.3,106.2l1.3-15.9l3.8,0.3l-1.3,15.9L105.3,106.2z"/>
	<path class="st1" d="M122.2,104.6l-0.6,2.9l-9.6-0.8l1.3-15.9l3.8,0.3l-1,12.9L122.2,104.6z"/>
	<path class="st1" d="M123.8,107.7l1.3-15.9l3.8,0.3l-1.3,15.9L123.8,107.7z"/>
	<path class="st1" d="M138.2,95.8l-1.1,13l-3.8-0.3l1.1-13l-4.1-0.3l0.2-2.9l12.1,1l-0.6,2.9L138.2,95.8z"/>
	<path class="st1" d="M150.1,109.8l-3.8-0.3l0.5-5.9l-4.3-10.4l4.1,0.3l2.4,7.2l3.5-6.8l4,0.3l-5.9,9.5L150.1,109.8z"/>
	<path class="st1" d="M39.7,117.7c-0.1,1.3-1,2-2.2,2.7l1.9,2.1c0.3-0.6,0.6-1.3,0.9-2.1l1.9,0.7c-0.5,1.1-1,2-1.6,2.7l1.7,1.7
		l-2.1,0.8l-1.1-1.2c-1,0.7-2.1,1-3.4,0.9c-2.2-0.2-3.6-1.4-3.5-3.2c0.1-1.2,0.8-2,2.3-2.8c-1-1.1-1.3-1.7-1.2-2.7
		c0.1-1.3,1.2-2.4,3.4-2.2C38.7,115.2,39.8,116.3,39.7,117.7z M34.7,122.8c-0.1,0.8,0.5,1.4,1.5,1.5c0.7,0.1,1.2-0.1,1.7-0.4
		l-2.2-2.5C35.1,121.7,34.8,122.2,34.7,122.8z M35.6,117.4c0,0.5,0.2,0.9,0.7,1.6c0.7-0.4,1.1-0.8,1.1-1.4c0-0.6-0.3-1-0.8-1
		C36,116.5,35.6,116.9,35.6,117.4z"/>
	<path class="st1" d="M55.6,124.2c-0.2,2.4-2.2,2.9-4.8,2.7l-3.3-0.3l0.8-10.4l2.9,0.2c2.8,0.2,4.4,1.1,4.3,3
		c-0.1,1.3-1.1,1.9-2.1,2.1C54.6,121.9,55.7,122.5,55.6,124.2z M53.1,123.9c0.1-1-0.6-1.5-1.7-1.6l-1.1-0.1l-0.2,2.8l0.9,0.1
		C52.1,125.2,53,125,53.1,123.9z M50.4,120.6l0.9,0.1c1,0.1,1.6-0.3,1.7-1.1c0.1-0.9-0.5-1.2-1.7-1.3l-0.7-0.1L50.4,120.6z"/>
	<path class="st1" d="M66,122.9c-0.3,3.4-2.2,5.3-5.1,5.1c-2.9-0.2-4.5-2.4-4.2-5.8c0.3-3.4,2.2-5.3,5.1-5
		C64.7,117.3,66.3,119.4,66,122.9z M59.2,122.3c-0.2,2.6,0.5,3.7,1.8,3.8c1.4,0.1,2.2-0.8,2.4-3.5c0.2-2.6-0.4-3.7-1.8-3.8
		C60.2,118.7,59.4,119.7,59.2,122.3z"/>
	<path class="st1" d="M76.3,123.7c-0.3,3.4-2.2,5.3-5.1,5.1c-2.9-0.2-4.5-2.4-4.2-5.8c0.3-3.4,2.2-5.3,5.1-5
		C75,118.1,76.6,120.2,76.3,123.7z M69.5,123.1c-0.2,2.6,0.5,3.7,1.8,3.8c1.4,0.1,2.2-0.8,2.4-3.5c0.2-2.6-0.4-3.7-1.8-3.8
		C70.6,119.6,69.8,120.5,69.5,123.1z"/>
	<path class="st1" d="M77.4,129l0.8-10.4l2.5,0.2l-0.8,10.4L77.4,129z M86,129.7l-2.8-0.2l-2.9-5.8l3.7-4.6l2.6,0.2l-3.7,4.4
		L86,129.7z"/>
	<path class="st1" d="M99.7,125.6c-0.3,3.4-2.2,5.3-5.1,5.1c-2.9-0.2-4.5-2.4-4.2-5.8c0.3-3.4,2.2-5.3,5.1-5
		C98.3,120,99.9,122.1,99.7,125.6z M92.9,125c-0.2,2.6,0.5,3.7,1.8,3.8c1.4,0.1,2.2-0.8,2.4-3.5c0.2-2.6-0.4-3.7-1.8-3.8
		C93.9,121.5,93.1,122.4,92.9,125z"/>
	<path class="st1" d="M105.6,131.3l-2.3-8.3c0,1,0.1,2.3,0,4.3l-0.3,3.8l-2.2-0.2l0.8-10.4l3,0.2l2.4,8.3c-0.1-0.8-0.2-2.2,0-3.9
		l0.3-4.2l2.2,0.2l-0.8,10.4L105.6,131.3z"/>
	<path class="st1" d="M117.3,130.3l-0.4,1.9l-6.2-0.5l0.8-10.4l2.5,0.2l-0.7,8.4L117.3,130.3z"/>
	<path class="st1" d="M118.3,132.3l0.8-10.4l2.5,0.2l-0.8,10.4L118.3,132.3z"/>
	<path class="st1" d="M127.5,133.1l-2.3-8.3c0,1,0.1,2.3,0,4.3l-0.3,3.8l-2.2-0.2l0.8-10.4l3.1,0.2l2.4,8.3c-0.1-0.8-0.2-2.2,0-3.9
		l0.3-4.2l2.2,0.2l-0.8,10.4L127.5,133.1z"/>
	<path class="st1" d="M135.7,125.1l-0.2,2.5l3.2,0.3l-0.1,1.7l-3.2-0.3l-0.2,2.6l3.9,0.3l-0.1,1.8l-6.4-0.5l0.8-10.4l6.4,0.5
		l-0.4,1.7L135.7,125.1z"/>
</g>
</svg>
